#Comment line ignore any data following # character 
#Hierarchical Translation and Rotation (.htr) file 
[Header]	
#Header keywords are followed by a single value 
FileType HTR		#Single word string
DataType HTRS		#Translation followed by rotation and scale data
FileVersion 1		#integer
NumSegments 84		#integer
NumFrames 2		#integer
DataFrameRate 30		#integer, data frame rate in this file
EulerRotationOrder ZYX
CalibrationUnits mm
RotationUnits Degrees
GlobalAxisofGravity Y
BoneLengthAxis Y
ScaleFactor 1.00
[SegmentNames&Hierarchy]
#CHILD	PARENT
MASTER GLOBAL
root MASTER
chest root
L_mid_tent01 root
R_mid_tent01 root
spine01 root
Bip01_Neck chest
L_humerus chest
R_humerus chest
weapon_bone chest
Bip01_Head Bip01_Neck
eye_left_bone Bip01_Head
eye_right_bone Bip01_Head
L_forearm L_humerus
L_front_hand L_forearm
L_weapon_bone L_forearm
L_front_hand01_01 L_front_hand
L_front_hand02_01 L_front_hand
L_front_hand03_01 L_front_hand
L_front_hand01_02 L_front_hand01_01
L_front_hand02_02 L_front_hand02_01
L_front_hand03_02 L_front_hand03_01
R_forearm R_humerus
R_front_hand R_forearm
R_weapon_bone R_forearm
R_front_hand01_01 R_front_hand
R_front_hand02_01 R_front_hand
R_front_hand03_01 R_front_hand
R_front_hand01_02 R_front_hand01_01
R_front_hand02_02 R_front_hand02_01
R_front_hand03_02 R_front_hand03_01
null_rope01_connect L_mid_tent01
Rope1_Seg01 null_rope01_connect
Rope1_Seg02 Rope1_Seg01
Rope1_Seg03 Rope1_Seg02
Rope1_Seg04 Rope1_Seg03
Rope1_Seg05 Rope1_Seg04
Rope1_Seg06 Rope1_Seg05
Rope1_Seg07 Rope1_Seg06
Rope1_Seg09 Rope1_Seg07
L_mid_hand01 Rope1_Seg09
L_mid_hand02 Rope1_Seg09
L_mid_hand03 Rope1_Seg09
null_rope02_connect R_mid_tent01
Rope2_Seg01 null_rope02_connect
Rope2_Seg02 Rope2_Seg01
Rope2_Seg03 Rope2_Seg02
Rope2_Seg04 Rope2_Seg03
Rope2_Seg05 Rope2_Seg04
Rope2_Seg06 Rope2_Seg05
Rope2_Seg07 Rope2_Seg06
Rope2_Seg09 Rope2_Seg07
R_mid_hand01 Rope2_Seg09
R_mid_hand02 Rope2_Seg09
R_mid_hand03 Rope2_Seg09
spine02 spine01
spine03 spine02
pelvis spine03
null_rope03_connect pelvis
null_rope04_connect pelvis
Rope3_Seg01 null_rope03_connect
Rope3_Seg02 Rope3_Seg01
Rope3_Seg03 Rope3_Seg02
Rope3_Seg04 Rope3_Seg03
Rope3_Seg05 Rope3_Seg04
Rope3_Seg06 Rope3_Seg05
Rope3_Seg07 Rope3_Seg06
Rope3_Seg08 Rope3_Seg07
Rope3_Seg09 Rope3_Seg08
R_rear_hand01 Rope3_Seg09
R_rear_hand02 Rope3_Seg09
R_rear_hand03 Rope3_Seg09
Rope4_Seg01 null_rope04_connect
Rope4_Seg02 Rope4_Seg01
Rope4_Seg03 Rope4_Seg02
Rope4_Seg04 Rope4_Seg03
Rope4_Seg05 Rope4_Seg04
Rope4_Seg06 Rope4_Seg05
Rope4_Seg07 Rope4_Seg06
Rope4_Seg08 Rope4_Seg07
Rope4_Seg09 Rope4_Seg08
L_rear_hand01 Rope4_Seg09
L_rear_hand02 Rope4_Seg09
L_rear_hand03 Rope4_Seg09
[BasePosition]
#SegmentName Tx, Ty, Tz, Rx, Ry, Rz, BoneLength
MASTER 0.000000 0.000000 0.000000 -90.000000 0.000000 0.000000 10.000000 
root 0.000000 0.000000 0.000000 0.000000 0.000000 0.000000 10.000000 
chest 0.000000 0.000000 0.000000 0.000000 0.000000 0.000000 10.000000 
L_mid_tent01 0.000000 0.000000 0.000000 0.000000 0.000000 0.000000 10.000000 
R_mid_tent01 0.000000 0.000000 0.000000 0.000000 0.000000 0.000000 10.000000 
spine01 0.000000 0.000000 0.000000 0.000000 0.000000 0.000000 10.000000 
Bip01_Neck 0.000000 0.000000 0.000000 0.000000 0.000000 0.000000 10.000000 
L_humerus 0.000000 0.000000 0.000000 0.000000 0.000000 0.000000 10.000000 
R_humerus 0.000000 0.000000 0.000000 0.000000 0.000000 0.000000 10.000000 
weapon_bone 0.000000 0.000000 0.000000 0.000000 0.000000 0.000000 10.000000 
Bip01_Head 0.000000 0.000000 0.000000 0.000000 0.000000 0.000000 10.000000 
eye_left_bone 0.000000 0.000000 0.000000 0.000000 0.000000 0.000000 10.000000 
eye_right_bone 0.000000 0.000000 0.000000 0.000000 0.000000 0.000000 10.000000 
L_forearm 0.000000 0.000000 0.000000 0.000000 0.000000 0.000000 10.000000 
L_front_hand 0.000000 0.000000 0.000000 0.000000 0.000000 0.000000 10.000000 
L_weapon_bone 0.000000 0.000000 0.000000 0.000000 0.000000 0.000000 10.000000 
L_front_hand01_01 0.000000 0.000000 0.000000 0.000000 0.000000 0.000000 10.000000 
L_front_hand02_01 0.000000 0.000000 0.000000 0.000000 0.000000 0.000000 10.000000 
L_front_hand03_01 0.000000 0.000000 0.000000 0.000000 0.000000 0.000000 10.000000 
L_front_hand01_02 0.000000 0.000000 0.000000 0.000000 0.000000 0.000000 10.000000 
L_front_hand02_02 0.000000 0.000000 0.000000 0.000000 0.000000 0.000000 10.000000 
L_front_hand03_02 0.000000 0.000000 0.000000 0.000000 0.000000 0.000000 10.000000 
R_forearm 0.000000 0.000000 0.000000 0.000000 0.000000 0.000000 10.000000 
R_front_hand 0.000000 0.000000 0.000000 0.000000 0.000000 0.000000 10.000000 
R_weapon_bone 0.000000 0.000000 0.000000 0.000000 0.000000 0.000000 10.000000 
R_front_hand01_01 0.000000 0.000000 0.000000 0.000000 0.000000 0.000000 10.000000 
R_front_hand02_01 0.000000 0.000000 0.000000 0.000000 0.000000 0.000000 10.000000 
R_front_hand03_01 0.000000 0.000000 0.000000 0.000000 0.000000 0.000000 10.000000 
R_front_hand01_02 0.000000 0.000000 0.000000 0.000000 0.000000 0.000000 10.000000 
R_front_hand02_02 0.000000 0.000000 0.000000 0.000000 0.000000 0.000000 10.000000 
R_front_hand03_02 0.000000 0.000000 0.000000 0.000000 0.000000 0.000000 10.000000 
null_rope01_connect 0.000000 0.000000 0.000000 0.000000 0.000000 0.000000 10.000000 
Rope1_Seg01 0.000000 0.000000 0.000000 0.000000 0.000000 0.000000 10.000000 
Rope1_Seg02 0.000000 0.000000 0.000000 0.000000 0.000000 0.000000 10.000000 
Rope1_Seg03 0.000000 0.000000 0.000000 0.000000 0.000000 0.000000 10.000000 
Rope1_Seg04 0.000000 0.000000 0.000000 0.000000 0.000000 0.000000 10.000000 
Rope1_Seg05 0.000000 0.000000 0.000000 0.000000 0.000000 0.000000 10.000000 
Rope1_Seg06 0.000000 0.000000 0.000000 0.000000 0.000000 0.000000 10.000000 
Rope1_Seg07 0.000000 0.000000 0.000000 0.000000 0.000000 0.000000 10.000000 
Rope1_Seg09 0.000000 0.000000 0.000000 0.000000 0.000000 0.000000 10.000000 
L_mid_hand01 0.000000 0.000000 0.000000 0.000000 0.000000 0.000000 10.000000 
L_mid_hand02 0.000000 0.000000 0.000000 0.000000 0.000000 0.000000 10.000000 
L_mid_hand03 0.000000 0.000000 0.000000 0.000000 0.000000 0.000000 10.000000 
null_rope02_connect 0.000000 0.000000 0.000000 0.000000 0.000000 0.000000 10.000000 
Rope2_Seg01 0.000000 0.000000 0.000000 0.000000 0.000000 0.000000 10.000000 
Rope2_Seg02 0.000000 0.000000 0.000000 0.000000 0.000000 0.000000 10.000000 
Rope2_Seg03 0.000000 0.000000 0.000000 0.000000 0.000000 0.000000 10.000000 
Rope2_Seg04 0.000000 0.000000 0.000000 0.000000 0.000000 0.000000 10.000000 
Rope2_Seg05 0.000000 0.000000 0.000000 0.000000 0.000000 0.000000 10.000000 
Rope2_Seg06 0.000000 0.000000 0.000000 0.000000 0.000000 0.000000 10.000000 
Rope2_Seg07 0.000000 0.000000 0.000000 0.000000 0.000000 0.000000 10.000000 
Rope2_Seg09 0.000000 0.000000 0.000000 0.000000 0.000000 0.000000 10.000000 
R_mid_hand01 0.000000 0.000000 0.000000 0.000000 0.000000 0.000000 10.000000 
R_mid_hand02 0.000000 0.000000 0.000000 0.000000 0.000000 0.000000 10.000000 
R_mid_hand03 0.000000 0.000000 0.000000 0.000000 0.000000 0.000000 10.000000 
spine02 0.000000 0.000000 0.000000 0.000000 0.000000 0.000000 10.000000 
spine03 0.000000 0.000000 0.000000 0.000000 0.000000 0.000000 10.000000 
pelvis 0.000000 0.000000 0.000000 0.000000 0.000000 0.000000 10.000000 
null_rope03_connect 0.000000 0.000000 0.000000 0.000000 0.000000 0.000000 10.000000 
null_rope04_connect 0.000000 0.000000 0.000000 0.000000 0.000000 0.000000 10.000000 
Rope3_Seg01 0.000000 0.000000 0.000000 0.000000 0.000000 0.000000 10.000000 
Rope3_Seg02 0.000000 0.000000 0.000000 0.000000 0.000000 0.000000 10.000000 
Rope3_Seg03 0.000000 0.000000 0.000000 0.000000 0.000000 0.000000 10.000000 
Rope3_Seg04 0.000000 0.000000 0.000000 0.000000 0.000000 0.000000 10.000000 
Rope3_Seg05 0.000000 0.000000 0.000000 0.000000 0.000000 0.000000 10.000000 
Rope3_Seg06 0.000000 0.000000 0.000000 0.000000 0.000000 0.000000 10.000000 
Rope3_Seg07 0.000000 0.000000 0.000000 0.000000 0.000000 0.000000 10.000000 
Rope3_Seg08 0.000000 0.000000 0.000000 0.000000 0.000000 0.000000 10.000000 
Rope3_Seg09 0.000000 0.000000 0.000000 0.000000 0.000000 0.000000 10.000000 
R_rear_hand01 0.000000 0.000000 0.000000 0.000000 0.000000 0.000000 10.000000 
R_rear_hand02 0.000000 0.000000 0.000000 0.000000 0.000000 0.000000 10.000000 
R_rear_hand03 0.000000 0.000000 0.000000 0.000000 0.000000 0.000000 10.000000 
Rope4_Seg01 0.000000 0.000000 0.000000 0.000000 0.000000 0.000000 10.000000 
Rope4_Seg02 0.000000 0.000000 0.000000 0.000000 0.000000 0.000000 10.000000 
Rope4_Seg03 0.000000 0.000000 0.000000 0.000000 0.000000 0.000000 10.000000 
Rope4_Seg04 0.000000 0.000000 0.000000 0.000000 0.000000 0.000000 10.000000 
Rope4_Seg05 0.000000 0.000000 0.000000 0.000000 0.000000 0.000000 10.000000 
Rope4_Seg06 0.000000 0.000000 0.000000 0.000000 0.000000 0.000000 10.000000 
Rope4_Seg07 0.000000 0.000000 0.000000 0.000000 0.000000 0.000000 10.000000 
Rope4_Seg08 0.000000 0.000000 0.000000 0.000000 0.000000 0.000000 10.000000 
Rope4_Seg09 0.000000 0.000000 0.000000 0.000000 0.000000 0.000000 10.000000 
L_rear_hand01 0.000000 0.000000 0.000000 0.000000 0.000000 0.000000 10.000000 
L_rear_hand02 0.000000 0.000000 0.000000 0.000000 0.000000 0.000000 10.000000 
L_rear_hand03 0.000000 0.000000 0.000000 0.000000 0.000000 0.000000 10.000000 
#Beginning of Data. Separated by tabs
#Fr	Tx	Ty	Tz	Rx	Ry	Rz	SF
[MASTER]
16 812.493469 3292.781738 2846.471924 0.001660 0.001660 0.001660 4427.749023
17 741.473572 3557.127930 2970.569824 0.001660 0.001660 0.001660 4693.317383
[root]
16 32.590866 -122.256157 791.924744 -14.035873 7.015546 -91.366631 801.968506
17 66.180138 -124.109787 756.088074 -14.875413 0.946706 -87.738602 769.059326
[chest]
16 -84.512650 -34.090519 0.000000 -2.946623 11.033777 116.510788 91.129311
17 -84.512650 -34.090519 0.000000 -2.930390 8.503732 122.094635 91.129311
[L_mid_tent01]
16 27.299210 22.179316 -249.918671 -2.170425 19.318882 76.891327 252.381683
17 27.299219 22.179319 -249.918671 -2.629997 19.154825 76.199860 252.381683
[R_mid_tent01]
16 23.228794 24.509907 226.238495 165.478745 -25.658600 67.092659 228.744751
17 23.228794 24.509907 226.238495 164.729416 -26.578810 66.800552 228.744751
[spine01]
16 -0.361383 -0.195265 0.000000 -0.000001 -0.000007 22.052340 0.410763
17 -0.361383 -0.195265 0.000000 -0.000001 -0.000007 22.052340 0.410763
[Bip01_Neck]
16 165.484543 71.581718 0.000119 176.643677 -1.657967 43.431911 180.302734
17 165.484543 71.581718 0.000119 176.643677 -1.657967 43.431911 180.302734
[L_humerus]
16 -13.983130 -135.272980 -120.471481 145.877762 75.087708 -122.888939 181.680161
17 -13.983130 -135.272980 -120.471481 148.843521 73.521423 -119.803406 181.680161
[R_humerus]
16 -13.983309 -135.273102 125.287651 -172.556305 -56.918030 -92.269768 184.909012
17 -13.983309 -135.273102 125.287651 -172.790817 -55.287823 -91.998848 184.909012
[weapon_bone]
16 235.964890 -300.705902 0.000000 0.000000 -89.951546 -128.212341 382.234833
17 235.964890 -300.705902 0.000000 0.000000 -89.951546 -128.212341 382.234833
[Bip01_Head]
16 213.329727 186.033279 7.674783 21.538929 0.804446 -38.200127 283.155182
17 213.330856 186.030289 7.713359 18.128374 0.910422 -38.234638 283.155090
[eye_left_bone]
16 -24.626970 125.451866 -64.772606 0.000000 -90.000000 -99.840431 143.318359
17 -24.626970 125.451866 -64.772606 0.000000 -90.000000 -99.840431 143.318359
[eye_right_bone]
16 -24.626970 125.451866 64.327362 0.000000 -89.965736 80.156380 143.117676
17 -24.626970 125.451866 64.327362 0.000000 -89.965736 80.156380 143.117676
[L_forearm]
16 322.776093 0.000000 -0.000119 0.000427 -0.002308 -110.975800 322.776093
17 322.776093 0.000000 -0.000119 0.000428 -0.002308 -111.023788 322.776093
[L_front_hand]
16 241.149185 -0.042021 -3.300071 -178.667953 -1.835447 -27.422350 241.171753
17 241.149185 -0.042021 -3.300071 -178.667953 -1.835447 -27.422342 241.171753
[L_weapon_bone]
16 156.183838 0.000000 0.000000 0.000014 0.000007 0.000001 156.183838
17 156.183838 0.000000 0.000000 0.000014 0.000007 0.000001 156.183838
[L_front_hand01_01]
16 86.095154 20.947098 -0.655860 -0.307662 -0.512638 68.898666 88.609184
17 86.095154 20.947098 -0.655860 -0.320916 -0.506937 70.186226 88.609184
[L_front_hand02_01]
16 86.935165 -11.437475 24.513514 145.311646 -56.611832 -50.692287 91.046425
17 86.935165 -11.437475 24.513514 146.956528 -57.330299 -52.653664 91.046425
[L_front_hand03_01]
16 86.637497 -14.123976 -20.424902 -145.445206 54.832184 -52.559963 90.126129
17 86.637497 -14.123976 -20.424902 -146.987747 55.547054 -54.435066 90.126129
[L_front_hand01_02]
16 71.020905 -0.000179 0.000030 0.000318 -0.002326 -105.568306 71.020905
17 71.020905 -0.000179 0.000030 0.000320 -0.002325 -105.659500 71.020905
[L_front_hand02_02]
16 71.020927 -0.000119 0.000060 0.000318 -0.002326 -105.568306 71.020927
17 71.020927 -0.000119 0.000060 0.000320 -0.002325 -105.659500 71.020927
[L_front_hand03_02]
16 71.020905 -0.000060 0.000060 0.000318 -0.002326 -105.568306 71.020905
17 71.020905 -0.000060 0.000060 0.000320 -0.002325 -105.659500 71.020905
[R_forearm]
16 322.776428 -0.000060 0.000030 0.201195 0.067910 -109.627075 322.776428
17 322.776428 -0.000060 0.000030 0.201156 0.068025 -109.692146 322.776428
[R_front_hand]
16 238.847015 -0.006795 2.210259 -2.635298 -10.645461 -26.312506 238.857239
17 238.847015 -0.006795 2.210259 -2.635298 -10.645461 -26.312506 238.857239
[R_weapon_bone]
16 155.664093 0.002503 -0.000030 0.003487 0.001180 -90.988930 155.664078
17 155.664093 0.002503 -0.000030 0.003487 0.001180 -90.988930 155.664078
[R_front_hand01_01]
16 87.624611 14.231146 22.918642 -147.368515 -57.500031 53.246616 91.683487
17 87.624611 14.231146 22.918642 -150.820541 -58.784584 57.311836 91.683487
[R_front_hand02_01]
16 89.356956 14.367283 -19.491137 147.772614 55.873154 55.617844 92.579636
17 89.356956 14.367283 -19.491137 151.027054 57.144745 59.518555 92.579636
[R_front_hand03_01]
16 87.286232 -22.307278 -0.143439 0.124412 -0.437303 -70.732674 90.091743
17 87.286232 -22.307278 -0.143439 0.144811 -0.432555 -73.232841 90.091743
[R_front_hand01_02]
16 71.020905 0.000060 0.000119 0.002323 -0.000334 106.381714 71.020905
17 71.020905 0.000060 0.000119 0.002323 -0.000334 106.381714 71.020905
[R_front_hand02_02]
16 71.020844 -0.000030 -0.000119 0.002323 -0.000334 106.381714 71.020836
17 71.020844 -0.000030 -0.000119 0.002323 -0.000334 106.381714 71.020836
[R_front_hand03_02]
16 71.020905 0.000000 0.000030 0.002323 -0.000334 106.381714 71.020905
17 71.020905 0.000000 0.000030 0.002323 -0.000334 106.381714 71.020905
[null_rope01_connect]
16 328.732483 0.000000 -0.000238 -10.507926 -33.089767 15.408596 328.732483
17 328.732483 0.000000 -0.000238 -1.744736 -34.191494 11.609104 328.732483
[Rope1_Seg01]
16 0.000038 -0.000252 0.000153 -0.828927 46.937527 -176.111969 0.000297
17 0.000038 -0.000266 0.000153 -13.027656 44.665150 166.568085 0.000309
[Rope1_Seg02]
16 139.999863 -0.000179 0.000000 -0.982017 10.686565 -8.637147 139.999863
17 139.999863 -0.000179 0.000000 -1.733277 13.181548 1.489344 139.999863
[Rope1_Seg03]
16 139.999924 0.000060 -0.000060 -3.660899 17.071735 -15.369814 139.999924
17 139.999924 0.000060 -0.000060 -6.412317 22.586540 3.094981 139.999924
[Rope1_Seg04]
16 139.999924 -0.000060 -0.000119 -3.064803 14.749485 -15.851981 139.999924
17 139.999924 -0.000060 -0.000119 -10.373033 20.705431 4.980473 139.999924
[Rope1_Seg05]
16 139.999832 0.000119 -0.000060 -55.746738 27.221491 -10.903387 139.999832
17 139.999832 0.000119 -0.000060 -20.734421 36.500221 26.032413 139.999832
[Rope1_Seg06]
16 139.999954 0.000119 -0.000060 -55.921612 41.376476 45.848579 139.999954
17 139.999954 0.000119 -0.000060 -7.104434 21.371462 44.781498 139.999954
[Rope1_Seg07]
16 139.999985 0.000060 0.000000 -3.477407 -6.055032 16.813034 139.999985
17 139.999985 0.000060 0.000000 -0.398552 2.719283 11.165657 139.999985
[Rope1_Seg09]
16 121.602913 0.000119 -0.000089 -89.793175 -1.359789 0.847147 121.602913
17 121.602913 0.000119 -0.000089 -89.793175 -1.359789 0.847147 121.602913
[L_mid_hand01]
16 103.859421 1.038730 8.195221 112.678772 -49.980732 -18.276018 104.187431
17 103.859421 1.038730 8.195221 114.394836 -53.111431 -20.468822 104.187431
[L_mid_hand02]
16 105.572853 -4.139662 -10.864139 -152.571289 36.560631 -48.342625 106.211075
17 105.572853 -4.139662 -10.864139 -154.909454 38.072201 -52.197857 106.211075
[L_mid_hand03]
16 104.641464 17.579376 -3.913581 -11.926217 14.597142 53.941059 106.179977
17 104.641464 17.579376 -3.913581 -11.031658 15.280048 57.403881 106.179977
[null_rope02_connect]
16 328.732849 0.000179 -0.000119 -163.660248 -3.533775 -25.435631 328.732849
17 328.732849 0.000179 -0.000119 -156.706070 -4.429728 -22.274229 328.732849
[Rope2_Seg01]
16 0.000088 -0.000127 0.000000 -21.365606 -39.546032 -176.528488 0.000155
17 0.000088 -0.000143 0.000000 -20.656500 -41.013279 -177.002533 0.000168
[Rope2_Seg02]
16 139.999741 -0.000060 -0.000119 2.554130 -5.192526 -6.203035 139.999756
17 139.999741 -0.000060 -0.000119 1.336044 -6.072366 -2.461683 139.999756
[Rope2_Seg03]
16 140.000107 0.000030 0.000000 7.823088 -19.566669 -20.124784 140.000107
17 140.000107 0.000030 0.000000 2.718489 -19.303486 -8.330256 140.000107
[Rope2_Seg04]
16 139.999802 0.000000 -0.000060 12.556520 -35.541985 -52.619961 139.999802
17 139.999802 0.000000 -0.000060 -5.677812 -62.553818 -37.499752 139.999802
[Rope2_Seg05]
16 139.999985 -0.000060 0.000119 -3.232290 -9.780283 -36.913876 139.999985
17 139.999985 -0.000060 0.000119 -43.211868 -37.329971 -37.052349 139.999985
[Rope2_Seg06]
16 139.999893 -0.000030 -0.000119 -0.688958 -3.393688 -12.595922 139.999893
17 139.999893 -0.000030 -0.000119 -8.197417 1.230085 -10.977195 139.999893
[Rope2_Seg07]
16 139.999893 0.000060 -0.000060 -0.203556 -0.805513 -3.182422 139.999893
17 139.999893 0.000060 -0.000060 -2.046361 0.848754 -3.273755 139.999893
[Rope2_Seg09]
16 121.338966 0.000089 -0.000060 33.793236 -1.359788 -0.847141 121.338966
17 121.338966 0.000089 -0.000060 33.793236 -1.359788 -0.847141 121.338966
[R_mid_hand01]
16 104.680779 11.144459 -10.335981 -37.204079 31.906813 37.576260 105.778534
17 104.680779 11.144459 -10.335981 -36.871494 32.306065 38.202831 105.778534
[R_mid_hand02]
16 104.070427 2.443552 8.231699 70.367462 -42.427391 14.067809 104.424065
17 104.070427 2.443552 8.231699 70.157990 -43.050724 14.375074 104.424065
[R_mid_hand03]
16 106.028137 -11.221827 -5.996406 -169.893616 12.226661 -47.211018 106.788818
17 106.028137 -11.221827 -5.996406 -170.040359 12.343991 -47.884888 106.788818
[spine02]
16 129.756927 0.001550 0.000119 0.517902 -4.026523 -15.164311 129.756927
17 129.756927 0.001550 0.000119 0.522117 -4.025976 -15.237691 129.756927
[spine03]
16 78.613922 0.081662 -4.898967 1.990833 3.785398 17.869263 78.766457
17 78.613914 0.081664 -4.898965 1.993630 3.784378 17.916931 78.766449
[pelvis]
16 169.435242 0.051022 0.000000 -0.050295 -0.182367 10.767108 169.435257
17 169.435242 0.051022 0.000000 -0.049650 -0.182542 10.362247 169.435257
[null_rope03_connect]
16 -1.257226 -2.466202 137.391083 -7.478237 -12.580474 55.889526 137.418976
17 -1.257226 -2.466202 137.391083 -0.558569 -13.621017 52.621902 137.418976
[null_rope04_connect]
16 -1.259640 -2.480268 -137.844437 -7.478237 -12.580474 55.889526 137.872513
17 -1.259640 -2.480268 -137.844437 -0.558569 -13.621017 52.621902 137.872513
[Rope3_Seg01]
16 -0.000036 0.000000 -0.000028 26.821217 -15.692080 -128.030685 0.000046
17 -0.000036 0.000000 -0.000029 28.826578 -16.393381 -134.840973 0.000047
[Rope3_Seg02]
16 139.999924 -0.000119 0.000060 26.217199 -19.664789 6.354448 139.999924
17 139.999924 -0.000119 0.000060 24.354294 -14.174463 0.465705 139.999924
[Rope3_Seg03]
16 139.999924 -0.000119 0.000119 26.438847 -30.107883 34.965626 139.999924
17 139.999924 -0.000119 0.000119 44.191383 -25.303001 13.553696 139.999924
[Rope3_Seg04]
16 139.999924 0.000119 0.000000 4.762944 -4.366574 28.829779 139.999924
17 139.999924 0.000119 0.000000 16.046326 -7.522124 32.962032 139.999924
[Rope3_Seg05]
16 139.999924 -0.000238 0.000060 0.070222 -1.073105 13.893442 139.999924
17 139.999924 -0.000238 0.000060 3.362228 -0.035678 16.999260 139.999924
[Rope3_Seg06]
16 139.999893 -0.000119 -0.000060 -2.196940 -1.578211 17.433258 139.999893
17 139.999893 -0.000119 -0.000060 1.295645 -1.804977 15.351940 139.999893
[Rope3_Seg07]
16 139.999771 0.000060 -0.000119 -4.230248 -1.758907 14.672949 139.999771
17 139.999771 0.000060 -0.000119 -0.983958 -2.122301 16.909714 139.999771
[Rope3_Seg08]
16 139.999985 -0.000060 0.000000 -3.447619 -1.551319 8.220101 139.999985
17 139.999985 -0.000060 0.000000 -1.287745 -0.759204 9.562290 139.999985
[Rope3_Seg09]
16 90.185997 -0.000179 -0.000060 89.793228 -1.359877 -0.847183 90.185997
17 90.185997 -0.000179 -0.000060 89.793228 -1.359877 -0.847183 90.185997
[R_rear_hand01]
16 103.366196 -6.073594 -10.757982 -164.972809 19.789423 -40.983833 104.101845
17 103.366196 -6.073594 -10.757982 -165.575058 20.224257 -42.745785 104.101845
[R_rear_hand02]
16 100.509819 12.039542 -7.992327 -30.544968 25.097782 38.729172 101.543350
17 100.509819 12.039542 -7.992327 -29.842962 25.960011 40.362469 101.543350
[R_rear_hand03]
16 101.539970 5.215704 5.435467 82.376854 -41.657890 8.948382 101.819031
17 101.539970 5.215704 5.435467 82.169113 -43.351910 9.256876 101.819031
[Rope4_Seg01]
16 0.000006 -0.000252 -0.000153 170.282562 51.923851 177.012085 0.000295
17 0.000006 -0.000266 -0.000153 -155.330109 53.447117 -157.514175 0.000307
[Rope4_Seg02]
16 139.999985 0.000060 0.000119 -2.352297 -8.853849 -1.508136 139.999985
17 139.999985 0.000060 0.000119 -1.076454 -7.997126 -1.955963 139.999985
[Rope4_Seg03]
16 139.999924 0.000000 -0.000238 -1.811831 -12.997719 -2.744369 139.999924
17 139.999924 0.000000 -0.000238 -0.749619 -11.351756 -3.045473 139.999924
[Rope4_Seg04]
16 139.999985 0.000000 0.000119 -2.350368 -12.524844 -0.058863 139.999985
17 139.999985 0.000000 0.000119 -0.443394 -8.973528 -2.042280 139.999985
[Rope4_Seg05]
16 139.999802 -0.000060 -0.000119 2.915928 -25.768377 -12.470381 139.999802
17 139.999802 -0.000060 -0.000119 2.115393 -26.187504 -9.091311 139.999802
[Rope4_Seg06]
16 139.999924 0.000000 0.000060 1.531199 -21.953264 -14.407926 139.999924
17 139.999924 0.000000 0.000060 2.816979 -22.204187 -8.154288 139.999924
[Rope4_Seg07]
16 139.999802 0.000000 0.000000 -0.366412 -8.113855 -4.812926 139.999802
17 139.999802 0.000000 0.000000 1.195112 -7.869182 -2.500055 139.999802
[Rope4_Seg08]
16 139.999924 0.000000 0.000119 -1.877967 -3.830614 -2.256824 139.999924
17 139.999924 0.000000 0.000119 -0.827281 -3.795786 -1.119005 139.999924
[Rope4_Seg09]
16 90.185791 0.000060 0.000060 -135.617828 2.228885 0.850567 90.185791
17 90.185791 0.000060 0.000060 -135.617828 2.228885 0.850567 90.185791
[L_rear_hand01]
16 101.696655 -8.392275 -7.654577 -24.658649 -30.887175 128.783096 102.329041
17 101.696655 -8.392275 -7.654577 -22.991800 -32.088032 125.593987 102.329041
[L_rear_hand02]
16 102.726799 -1.568258 5.773216 80.302361 53.966496 168.267441 102.900848
17 102.726799 -1.568258 5.773216 79.542938 56.888836 167.348526 102.900848
[L_rear_hand03]
16 104.552910 9.721220 -10.420293 -169.691223 -22.530382 -125.995598 105.519653
17 104.552910 9.721220 -10.420293 -170.919907 -23.031244 -122.815857 105.519653
